<svg width="192" height="46" viewBox="0 0 192 46" fill="none" xmlns="http://www.w3.org/2000/svg">
<path d="M1.62967 13.6894C5.59656 16.8066 1.85872 11.7762 8.75036 9.58257C13.0723 7.15811 7.23185 33.7122 10.2734 36.8954C13.315 40.0786 15.5297 37.8685 16.4596 33.8276C16.4596 33.8276 21.8328 6.46535 28.0236 6.46535C34.2144 6.46535 28.8367 33.0689 31.8782 36.2521C34.9198 39.4354 37.7186 37.3406 38.6485 33.2998C38.6485 33.2998 38.559 26.7167 39.8511 20.1548C40.2784 17.6462 43 10.5281 43 10.5281C43 10.5281 41.126 11 39.8511 9.27786C38.5761 7.55572 39.5 5.94024 39.5 5.94024L36.3169 10.6876C36.3169 10.6876 35.1175 0.427317 29.313 0.296921C23.5086 0.166524 18.8003 10.6876 18.8003 10.6876C18.8003 10.6876 18.2163 -3.85942 9.68937 0.989595C1.16242 5.8386 -2.33723 10.5721 1.62967 13.6894Z" fill="#545454"/>
<path d="M75.2744 19.2106C75.8449 18.6315 76.8081 17.4894 77.581 16.3011C78.0634 15.4403 78.4816 14.4711 78.7825 13.4339C80.401 7.85488 72.6593 0.506559 66.4121 2.2758C60.1649 4.04504 57.5055 10.5281 57.5055 10.5281C57.5055 10.5281 52.1264 1.03126 46.8693 0.0674703C43.1363 -0.616923 39.5 5.94024 39.5 5.94024C39.5 5.94024 38.5761 7.55572 39.8511 9.27786C41.126 11 43 10.5281 43 10.5281C43 10.5281 43.9829 5.73333 46.8693 6.27744C52.4186 7.32351 48.8347 32.8942 51.8451 36.0988C54.8555 39.3035 56.825 35.7908 57.5055 33.2429C57.8861 24.1653 57.968 8.21374 67.4526 7.09105C70.5029 7.09105 70.1822 8.14389 69.1899 9.27786C66.7609 10.0455 65 12.3171 65 15C65 18.3137 67.6863 21 71 21C72.6731 21 74.1862 20.3152 75.2744 19.2106Z" fill="#78DBFF"/>
<path d="M98.38 22.3498C99.98 22.3498 101.2 22.8298 102.04 23.7898C102.9 24.7298 103.33 26.2598 103.33 28.3798V35.7598C103.33 36.3398 103.15 36.7898 102.79 37.1098C102.45 37.4098 102 37.5598 101.44 37.5598C100.9 37.5598 100.45 37.4098 100.09 37.1098C99.75 36.7898 99.58 36.3398 99.58 35.7598V28.3798C99.58 27.2798 99.38 26.4998 98.98 26.0398C98.6 25.5598 98.01 25.3198 97.21 25.3198C96.23 25.3198 95.45 25.6598 94.87 26.3398C94.29 26.9998 94 27.9098 94 29.0698V35.7598C94 36.3398 93.82 36.7898 93.46 37.1098C93.12 37.4098 92.68 37.5598 92.14 37.5598C91.6 37.5598 91.15 37.4098 90.79 37.1098C90.43 36.7898 90.25 36.3398 90.25 35.7598V28.3798C90.25 27.2798 90.05 26.4998 89.65 26.0398C89.27 25.5598 88.68 25.3198 87.88 25.3198C86.9 25.3198 86.12 25.6598 85.54 26.3398C84.98 26.9998 84.7 27.9098 84.7 29.0698V35.7598C84.7 36.3398 84.52 36.7898 84.16 37.1098C83.8 37.4098 83.35 37.5598 82.81 37.5598C82.27 37.5598 81.82 37.4098 81.46 37.1098C81.12 36.7898 80.95 36.3398 80.95 35.7598V24.1498C80.95 23.5898 81.13 23.1598 81.49 22.8598C81.85 22.5598 82.3 22.4098 82.84 22.4098C83.36 22.4098 83.78 22.5598 84.1 22.8598C84.44 23.1398 84.61 23.5498 84.61 24.0898V24.8098C85.07 24.0098 85.68 23.3998 86.44 22.9798C87.22 22.5598 88.11 22.3498 89.11 22.3498C91.31 22.3498 92.78 23.2698 93.52 25.1098C93.96 24.2698 94.61 23.5998 95.47 23.0998C96.33 22.5998 97.3 22.3498 98.38 22.3498ZM113.501 22.3498C115.541 22.3498 117.051 22.8598 118.031 23.8798C119.031 24.8798 119.531 26.4098 119.531 28.4698V35.7898C119.531 36.3298 119.371 36.7598 119.051 37.0798C118.731 37.3798 118.291 37.5298 117.731 37.5298C117.211 37.5298 116.781 37.3698 116.441 37.0498C116.121 36.7298 115.961 36.3098 115.961 35.7898V35.1298C115.621 35.9098 115.081 36.5198 114.341 36.9598C113.621 37.3998 112.781 37.6198 111.821 37.6198C110.841 37.6198 109.951 37.4198 109.151 37.0198C108.351 36.6198 107.721 36.0698 107.261 35.3698C106.801 34.6698 106.571 33.8898 106.571 33.0298C106.571 31.9498 106.841 31.0998 107.381 30.4798C107.941 29.8598 108.841 29.4098 110.081 29.1298C111.321 28.8498 113.031 28.7098 115.211 28.7098H115.961V28.0198C115.961 27.0398 115.751 26.3298 115.331 25.8898C114.911 25.4298 114.231 25.1998 113.291 25.1998C112.711 25.1998 112.121 25.2898 111.521 25.4698C110.921 25.6298 110.211 25.8698 109.391 26.1898C108.871 26.4498 108.491 26.5798 108.251 26.5798C107.891 26.5798 107.591 26.4498 107.351 26.1898C107.131 25.9298 107.021 25.5898 107.021 25.1698C107.021 24.8298 107.101 24.5398 107.261 24.2998C107.441 24.0398 107.731 23.7998 108.131 23.5798C108.831 23.1998 109.661 22.8998 110.621 22.6798C111.601 22.4598 112.561 22.3498 113.501 22.3498ZM112.571 34.9198C113.571 34.9198 114.381 34.5898 115.001 33.9298C115.641 33.2498 115.961 32.3798 115.961 31.3198V30.6898H115.421C114.081 30.6898 113.041 30.7498 112.301 30.8698C111.561 30.9898 111.031 31.1998 110.711 31.4998C110.391 31.7998 110.231 32.2098 110.231 32.7298C110.231 33.3698 110.451 33.8998 110.891 34.3198C111.351 34.7198 111.911 34.9198 112.571 34.9198ZM131.533 22.4098C132.053 22.3698 132.463 22.4798 132.763 22.7398C133.063 22.9998 133.213 23.3898 133.213 23.9098C133.213 24.4498 133.083 24.8498 132.823 25.1098C132.563 25.3698 132.093 25.5398 131.413 25.6198L130.513 25.7098C129.333 25.8298 128.463 26.2298 127.903 26.9098C127.363 27.5898 127.093 28.4398 127.093 29.4598V35.7598C127.093 36.3398 126.913 36.7898 126.553 37.1098C126.193 37.4098 125.743 37.5598 125.203 37.5598C124.663 37.5598 124.213 37.4098 123.853 37.1098C123.513 36.7898 123.343 36.3398 123.343 35.7598V24.1498C123.343 23.5898 123.513 23.1598 123.853 22.8598C124.213 22.5598 124.653 22.4098 125.173 22.4098C125.693 22.4098 126.113 22.5598 126.433 22.8598C126.753 23.1398 126.913 23.5498 126.913 24.0898V25.2898C127.293 24.4098 127.853 23.7298 128.593 23.2498C129.353 22.7698 130.193 22.4998 131.113 22.4398L131.533 22.4098ZM147.877 34.4698C148.277 34.8498 148.477 35.2798 148.477 35.7598C148.477 36.2198 148.307 36.6298 147.967 36.9898C147.647 37.3498 147.267 37.5298 146.827 37.5298C146.387 37.5298 145.977 37.3498 145.597 36.9898L138.577 30.6298V35.7598C138.577 36.3398 138.397 36.7798 138.037 37.0798C137.677 37.3798 137.227 37.5298 136.687 37.5298C136.147 37.5298 135.697 37.3798 135.337 37.0798C134.997 36.7798 134.827 36.3398 134.827 35.7598V17.8498C134.827 17.2698 134.997 16.8298 135.337 16.5298C135.697 16.2298 136.147 16.0798 136.687 16.0798C137.227 16.0798 137.677 16.2298 138.037 16.5298C138.397 16.8298 138.577 17.2698 138.577 17.8498V29.1298L144.997 22.9798C145.357 22.6198 145.767 22.4398 146.227 22.4398C146.687 22.4398 147.087 22.6098 147.427 22.9498C147.767 23.2898 147.937 23.6898 147.937 24.1498C147.937 24.6098 147.747 25.0298 147.367 25.4098L142.657 29.7898L147.877 34.4698ZM152.771 37.5598C152.231 37.5598 151.781 37.4098 151.421 37.1098C151.081 36.7898 150.911 36.3398 150.911 35.7598V17.8498C150.911 17.2698 151.081 16.8298 151.421 16.5298C151.781 16.2298 152.231 16.0798 152.771 16.0798C153.311 16.0798 153.761 16.2298 154.121 16.5298C154.481 16.8298 154.661 17.2698 154.661 17.8498V35.7598C154.661 36.3398 154.481 36.7898 154.121 37.1098C153.761 37.4098 153.311 37.5598 152.771 37.5598ZM170.138 33.3598C170.478 33.3598 170.748 33.4898 170.948 33.7498C171.168 34.0098 171.278 34.3598 171.278 34.7998C171.278 35.4198 170.908 35.9398 170.168 36.3598C169.488 36.7398 168.718 37.0498 167.858 37.2898C166.998 37.5098 166.178 37.6198 165.398 37.6198C163.038 37.6198 161.168 36.9398 159.788 35.5798C158.408 34.2198 157.718 32.3598 157.718 29.9998C157.718 28.4998 158.018 27.1698 158.618 26.0098C159.218 24.8498 160.058 23.9498 161.138 23.3098C162.238 22.6698 163.478 22.3498 164.858 22.3498C166.178 22.3498 167.328 22.6398 168.308 23.2198C169.288 23.7998 170.048 24.6198 170.588 25.6798C171.128 26.7398 171.398 27.9898 171.398 29.4298C171.398 30.2898 171.018 30.7198 170.258 30.7198H161.408C161.528 32.0998 161.918 33.1198 162.578 33.7798C163.238 34.4198 164.198 34.7398 165.458 34.7398C166.098 34.7398 166.658 34.6598 167.138 34.4998C167.638 34.3398 168.198 34.1198 168.818 33.8398C169.418 33.5198 169.858 33.3598 170.138 33.3598ZM164.948 24.9898C163.928 24.9898 163.108 25.3098 162.488 25.9498C161.888 26.5898 161.528 27.5098 161.408 28.7098H168.188C168.148 27.4898 167.848 26.5698 167.288 25.9498C166.728 25.3098 165.948 24.9898 164.948 24.9898ZM179.776 37.6198C177.596 37.6198 175.836 37.1898 174.496 36.3298C173.856 35.9498 173.536 35.4098 173.536 34.7098C173.536 34.3098 173.646 33.9898 173.866 33.7498C174.086 33.4898 174.356 33.3598 174.676 33.3598C175.016 33.3598 175.486 33.5198 176.086 33.8398C176.726 34.1398 177.306 34.3698 177.826 34.5298C178.366 34.6898 179.046 34.7698 179.866 34.7698C180.706 34.7698 181.356 34.6298 181.816 34.3498C182.296 34.0698 182.536 33.6798 182.536 33.1798C182.536 32.8398 182.436 32.5698 182.236 32.3698C182.056 32.1698 181.716 31.9898 181.216 31.8298C180.736 31.6498 179.996 31.4498 178.996 31.2298C177.216 30.8698 175.936 30.3598 175.156 29.6998C174.396 29.0398 174.016 28.1298 174.016 26.9698C174.016 26.0898 174.276 25.2998 174.796 24.5998C175.316 23.8798 176.026 23.3298 176.926 22.9498C177.846 22.5498 178.886 22.3498 180.046 22.3498C180.886 22.3498 181.696 22.4598 182.476 22.6798C183.256 22.8798 183.956 23.1798 184.576 23.5798C185.216 23.9798 185.536 24.5098 185.536 25.1698C185.536 25.5698 185.426 25.9098 185.206 26.1898C184.986 26.4498 184.716 26.5798 184.396 26.5798C184.176 26.5798 183.956 26.5398 183.736 26.4598C183.536 26.3598 183.276 26.2198 182.956 26.0398C182.376 25.7398 181.876 25.5198 181.456 25.3798C181.036 25.2198 180.516 25.1398 179.896 25.1398C179.156 25.1398 178.566 25.2898 178.126 25.5898C177.706 25.8898 177.496 26.2998 177.496 26.8198C177.496 27.3198 177.716 27.6998 178.156 27.9598C178.596 28.2198 179.446 28.4798 180.706 28.7398C182.046 29.0198 183.096 29.3398 183.856 29.6998C184.616 30.0598 185.156 30.5098 185.476 31.0498C185.816 31.5898 185.986 32.2798 185.986 33.1198C185.986 34.4798 185.416 35.5698 184.276 36.3898C183.156 37.2098 181.656 37.6198 179.776 37.6198Z" fill="url(#paint0_linear_55_5)"/>
<defs>
<linearGradient id="paint0_linear_55_5" x1="135.061" y1="24.7299" x2="135.061" y2="40.3355" gradientUnits="userSpaceOnUse">
<stop stop-color="#78DBFF"/>
<stop offset="1" stop-color="white"/>
</linearGradient>
</defs>
</svg>
