<svg width="80" height="39" viewBox="0 0 80 39" fill="none" xmlns="http://www.w3.org/2000/svg">
<path d="M2.6199 13.9348C6.58679 17.0521 2.84896 12.0217 9.74059 9.82805C14.0625 7.4036 8.22208 33.9576 11.2636 37.1409C14.3052 40.3241 16.52 38.1139 17.4499 34.0731C17.4499 34.0731 22.823 6.71083 29.0138 6.71083C35.2046 6.71083 29.8269 33.3144 32.8685 36.4976C35.91 39.6809 38.7088 37.5861 39.6387 33.5453C39.6387 33.5453 39.5492 26.9622 40.8413 20.4003C41.2687 17.8917 43.9902 10.7736 43.9902 10.7736C43.9902 10.7736 42.1162 11.2455 40.8413 9.52334C39.5664 7.8012 40.4902 6.18572 40.4902 6.18572L37.3071 10.9331C37.3071 10.9331 36.1077 0.6728 30.3033 0.542404C24.4988 0.412008 19.7906 10.9331 19.7906 10.9331C19.7906 10.9331 19.2065 -3.61393 10.6796 1.23508C2.15266 6.08409 -1.34699 10.8175 2.6199 13.9348Z" fill="#545454"/>
<path d="M76.2646 19.4561C76.8351 18.877 77.7983 17.7349 78.5713 16.5466C79.0537 15.6858 79.4718 14.7166 79.7727 13.6794C81.3913 8.10036 73.6495 0.752042 67.4023 2.52128C61.1552 4.29052 58.4958 10.7736 58.4958 10.7736C58.4958 10.7736 53.1166 1.27675 47.8595 0.312954C44.1265 -0.371439 40.4902 6.18573 40.4902 6.18573C40.4902 6.18573 39.5663 7.8012 40.8413 9.52335C42.1162 11.2455 43.9902 10.7736 43.9902 10.7736C43.9902 10.7736 44.9731 5.97882 47.8595 6.52293C53.4089 7.569 49.8249 33.1396 52.8353 36.3443C55.8457 39.549 57.8153 36.0363 58.4958 33.4883C58.8763 24.4107 58.9582 8.45922 68.4428 7.33654C71.4931 7.33654 71.1725 8.38937 70.1802 9.52334C67.7511 10.291 65.9902 12.5626 65.9902 15.2455C65.9902 18.5592 68.6765 21.2455 71.9902 21.2455C73.6633 21.2455 75.1764 20.5607 76.2646 19.4561Z" fill="#78DBFF"/>
</svg>
