<?xml version="1.0" standalone="no"?>
<!DOCTYPE svg PUBLIC "-//W3C//DTD SVG 20010904//EN"
 "http://www.w3.org/TR/2001/REC-SVG-20010904/DTD/svg10.dtd">
<svg version="1.0" xmlns="http://www.w3.org/2000/svg"
 width="1364.000000pt" height="1364.000000pt" viewBox="0 0 1364.000000 1364.000000"
 preserveAspectRatio="xMidYMid meet">
<metadata>
Created by potrace 1.14, written by Peter Selinger 2001-2017
</metadata>
<g transform="translate(0.000000,1364.000000) scale(0.100000,-0.100000)"
fill="#000000" stroke="none">
<path d="M2119 10156 c-2 -2 -24 -7 -49 -10 -25 -3 -67 -13 -95 -21 -27 -9
-50 -15 -50 -15 0 11 -280 -123 -290 -139 -3 -6 -10 -9 -15 -6 -4 3 -13 -2
-20 -10 -7 -8 -19 -15 -26 -15 -8 0 -14 -4 -14 -9 0 -5 -11 -12 -25 -15 -14
-4 -25 -10 -25 -15 0 -4 -18 -16 -40 -26 -22 -10 -40 -21 -40 -25 0 -5 -11
-11 -25 -14 -14 -4 -25 -11 -25 -16 0 -6 -5 -10 -10 -10 -12 0 -94 -52 -98
-62 -2 -5 -8 -8 -13 -8 -25 0 -466 -318 -575 -415 -6 -5 -40 -35 -75 -65 -115
-98 -287 -277 -359 -372 -8 -11 -23 -29 -32 -39 -10 -11 -18 -22 -18 -25 0 -3
-11 -20 -24 -37 -54 -72 -133 -239 -152 -322 -28 -121 -26 -249 6 -340 49
-141 141 -255 311 -382 101 -76 164 -112 218 -124 30 -7 38 -4 66 24 17 18 40
55 50 82 9 28 24 64 31 82 8 17 14 34 14 37 0 8 65 142 83 171 6 11 17 23 22
27 6 4 7 8 2 8 -4 0 1 8 10 18 10 11 26 30 35 43 42 58 139 145 226 202 70 46
252 140 252 130 0 -3 6 -1 13 4 9 8 68 31 97 38 3 1 19 8 35 15 61 27 100 31
135 16 54 -24 99 -113 125 -252 2 -11 4 -19 5 -19 7 0 23 -295 23 -435 0 -133
-9 -428 -18 -575 -9 -148 -16 -254 -20 -300 -7 -80 -18 -246 -19 -292 -1 -24
-3 -43 -6 -43 -3 0 -5 -19 -6 -43 0 -39 -9 -158 -19 -267 -3 -39 -8 -97 -20
-265 -5 -67 -15 -196 -21 -260 -2 -33 -6 -94 -9 -135 -2 -41 -7 -111 -10 -155
-18 -234 -28 -541 -28 -800 0 -375 11 -507 59 -707 2 -10 6 -27 8 -37 18 -78
105 -193 216 -284 44 -37 156 -100 210 -119 52 -18 155 -26 205 -14 45 10 50
11 55 16 3 3 23 14 45 24 34 17 145 120 180 167 41 56 117 198 135 254 7 22
16 45 20 50 6 9 20 55 21 70 0 2 6 20 15 40 8 19 15 38 15 42 1 5 3 13 5 18 3
11 41 187 48 225 5 23 8 38 21 100 3 14 10 45 15 70 5 25 12 55 15 67 10 46
15 69 20 96 3 16 15 68 26 115 11 48 23 98 25 112 3 14 10 43 16 65 5 22 12
50 14 63 3 13 14 60 25 105 11 45 25 100 29 122 5 22 27 112 50 200 23 88 43
167 45 175 11 48 26 106 29 115 16 56 26 96 31 124 3 19 9 41 14 50 7 13 23
70 36 131 2 8 18 62 35 120 17 58 33 112 34 120 2 8 12 42 22 75 10 33 19 62
19 65 1 3 8 25 15 50 16 52 14 45 24 90 5 19 12 40 16 45 5 8 32 95 35 115 4
28 196 585 242 700 14 36 26 70 27 75 2 6 10 28 20 50 10 22 28 67 41 100 39
103 134 314 210 465 65 131 83 164 127 241 7 12 41 65 76 117 34 52 62 96 62
98 0 5 21 31 96 118 51 60 103 110 171 166 30 25 130 74 174 85 69 19 174 12
233 -14 151 -67 285 -326 331 -641 3 -23 9 -54 19 -105 2 -11 7 -49 11 -85 4
-36 9 -74 11 -85 2 -11 7 -60 10 -110 3 -49 7 -108 9 -130 2 -22 6 -141 10
-264 3 -124 6 -227 7 -230 0 -3 0 -8 -1 -11 -7 -19 -4 -150 2 -150 5 0 6 -3 4
-7 -3 -5 -8 -154 -12 -333 -8 -402 -14 -597 -30 -1005 -22 -602 -22 -1242 1
-1425 2 -19 6 -55 9 -80 9 -86 13 -116 30 -192 3 -13 7 -32 9 -43 13 -58 50
-155 73 -189 31 -48 124 -138 194 -188 53 -39 159 -95 194 -103 11 -2 36 -8
55 -13 33 -8 123 -8 180 0 38 6 130 41 130 50 0 4 6 8 13 8 34 1 167 132 229
227 100 152 189 388 203 538 3 33 8 74 10 90 2 17 7 57 10 90 6 61 9 84 19
165 4 25 8 61 11 80 2 19 9 73 15 120 6 47 13 102 15 124 3 21 7 50 9 65 3 14
7 49 11 76 3 28 8 65 10 83 3 17 7 47 10 65 5 33 14 92 21 138 2 14 6 43 10
65 3 21 7 48 9 59 1 11 6 44 10 74 4 30 9 63 11 75 3 18 44 265 60 365 3 18 8
43 10 55 2 11 7 36 10 55 3 18 8 43 10 55 14 73 27 143 29 156 1 8 5 29 9 45
3 17 8 44 11 60 4 30 29 156 40 205 3 14 8 36 11 50 4 20 30 143 50 235 2 11
7 36 10 55 3 19 10 43 15 53 6 9 7 22 4 27 -3 6 -1 10 5 10 6 0 9 4 6 8 -3 5
9 60 25 123 17 63 32 127 34 142 3 16 7 33 10 38 4 5 8 17 10 26 1 10 10 45
19 78 10 33 19 67 21 75 2 8 4 15 5 15 1 0 3 7 5 16 16 84 186 581 213 624 4
6 7 12 8 15 13 68 234 459 260 460 6 0 16 11 24 24 29 55 202 168 230 151 5
-3 10 -2 10 2 0 9 64 9 112 0 79 -16 193 -98 239 -175 13 -20 25 -39 28 -42
13 -11 61 -110 54 -110 -5 0 -3 -4 3 -8 25 -16 141 -412 128 -434 -3 -4 -1 -8
3 -8 5 0 9 -10 10 -22 0 -13 4 -39 7 -58 4 -19 9 -48 12 -65 2 -16 6 -41 8
-55 5 -29 15 -106 21 -170 3 -25 8 -65 11 -90 7 -55 16 -166 30 -370 16 -227
27 -566 39 -1175 15 -730 31 -1142 51 -1305 6 -47 9 -76 18 -175 5 -50 19
-135 40 -245 37 -189 90 -303 185 -399 38 -37 86 -81 107 -97 22 -16 41 -32
44 -35 11 -12 137 -77 173 -89 70 -22 158 -17 220 14 56 27 157 113 157 133 0
6 4 13 8 15 34 14 158 289 187 414 2 10 13 52 24 91 13 47 22 121 26 210 3 76
8 165 11 198 2 33 6 94 9 135 10 152 28 353 39 439 3 20 8 63 11 96 11 102 14
127 19 159 3 17 8 57 11 89 4 32 8 68 11 80 4 22 10 60 20 127 5 37 5 39 29
174 8 49 13 91 10 94 -2 3 0 12 4 21 5 9 12 32 15 51 5 33 19 102 29 145 3 11
8 40 13 65 4 25 8 47 9 50 1 3 5 23 10 45 13 56 12 55 15 58 1 1 3 11 5 22 6
34 13 65 55 220 22 83 42 157 45 166 15 67 137 418 174 504 12 28 30 68 39 90
91 217 238 466 372 630 60 74 231 234 295 276 124 82 281 150 381 164 22 3 46
8 54 11 60 21 488 20 560 -1 8 -2 26 -6 40 -9 146 -25 265 -99 311 -192 23
-49 34 -170 17 -191 -6 -7 -8 -13 -5 -13 7 0 -24 -92 -49 -142 -17 -36 -21
-38 -63 -38 -71 0 -168 -18 -256 -46 -44 -15 -82 -29 -85 -33 -3 -3 -25 -17
-50 -30 -62 -33 -140 -97 -181 -150 -19 -23 -39 -48 -44 -55 -27 -29 -97 -172
-111 -226 -35 -136 -39 -157 -49 -258 -8 -73 -7 -263 0 -307 4 -22 8 -49 9
-60 4 -29 52 -122 82 -158 65 -77 191 -138 324 -155 57 -7 246 -7 285 1 17 3
58 11 93 17 78 13 278 79 352 115 60 30 90 42 104 43 5 0 12 4 15 9 3 5 35 27
71 48 286 171 489 399 595 671 19 46 32 84 30 84 -2 0 1 15 6 33 17 54 23 117
23 222 1 146 -12 225 -55 363 -63 196 -190 421 -331 587 -9 11 -26 31 -38 45
-48 56 -143 150 -151 150 -5 0 -9 7 -9 15 0 8 -4 15 -9 15 -4 0 -24 14 -42 30
-41 37 -198 155 -254 191 -70 45 -100 63 -105 62 -3 0 -16 7 -30 17 -75 53
-363 164 -490 189 -30 6 -66 14 -80 16 -92 19 -296 24 -380 11 -25 -4 -58 -9
-75 -11 -33 -4 -41 -6 -132 -29 -121 -32 -369 -138 -475 -204 -98 -61 -154
-98 -168 -108 -8 -7 -55 -45 -105 -84 -195 -155 -365 -340 -527 -574 -43 -61
-82 -116 -87 -122 -5 -7 -8 -14 -5 -17 2 -2 -2 -10 -11 -17 -8 -7 -15 -18 -15
-25 0 -8 -3 -15 -7 -17 -10 -4 -33 -45 -91 -161 l-44 -89 -20 39 c-11 21 -26
45 -34 54 -8 8 -14 19 -14 23 0 5 -53 89 -77 121 -5 6 -14 22 -22 38 -8 15
-18 27 -23 27 -4 0 -8 4 -8 10 0 8 -126 198 -139 210 -4 3 -20 25 -36 50 -17
25 -35 50 -41 55 -6 6 -21 26 -34 45 -13 19 -35 49 -49 66 -14 18 -35 44 -46
58 -11 14 -29 36 -40 49 -11 13 -38 46 -60 72 -146 178 -344 380 -490 502
-108 90 -111 92 -155 123 -19 13 -37 27 -40 30 -7 8 -96 62 -171 103 -106 58
-204 95 -324 123 -20 4 -141 16 -160 15 -37 -1 -105 -10 -121 -14 -10 -4 -34
-9 -51 -12 -52 -9 -257 -95 -273 -115 -3 -3 -33 -23 -67 -43 -34 -21 -63 -41
-65 -45 -2 -4 -21 -20 -43 -37 -90 -66 -271 -247 -355 -356 -14 -18 -30 -37
-35 -43 -6 -6 -39 -49 -73 -96 -35 -47 -70 -93 -78 -103 -8 -9 -14 -22 -14
-27 0 -6 -4 -10 -10 -10 -5 0 -10 -6 -10 -14 0 -8 -4 -16 -9 -18 -26 -10 -282
-450 -396 -681 -81 -164 -94 -185 -99 -160 -3 15 -13 69 -21 118 -9 50 -20
110 -25 135 -6 25 -13 56 -16 70 -3 14 -10 43 -16 65 -5 22 -12 47 -14 55 -2
8 -8 32 -14 53 -5 20 -14 52 -19 70 -5 17 -16 55 -26 82 -10 28 -19 57 -20 65
-2 8 -4 16 -5 18 -2 1 -3 5 -5 10 -1 4 -6 18 -12 32 -6 14 -20 51 -32 83 -11
32 -30 75 -40 95 -10 20 -19 40 -20 45 -2 19 -96 192 -146 272 -78 121 -223
279 -315 342 -89 61 -222 122 -280 129 -8 1 -37 7 -65 12 -48 10 -228 9 -270
-1 -11 -3 -33 -8 -50 -12 -113 -26 -274 -99 -377 -172 -26 -18 -50 -33 -53
-33 -3 0 -13 -8 -23 -17 -10 -10 -36 -31 -58 -48 -71 -54 -180 -158 -279 -267
-78 -85 -97 -108 -170 -203 -38 -50 -73 -91 -77 -93 -4 -2 -8 -10 -8 -18 0 -8
-4 -14 -9 -14 -5 0 -12 -8 -15 -18 -4 -10 -14 -27 -24 -38 -21 -23 -92 -132
-92 -139 1 -3 -5 -12 -12 -20 -31 -34 -36 -43 -31 -49 4 -3 1 -6 -5 -6 -7 0
-12 -7 -12 -15 0 -8 -4 -15 -10 -15 -5 0 -10 -4 -10 -8 0 -4 -29 -57 -65 -118
-36 -60 -82 -140 -101 -179 -20 -38 -62 -122 -95 -185 -32 -63 -59 -106 -59
-95 -1 11 -3 38 -5 60 -11 125 -15 162 -19 185 -2 14 -7 50 -11 80 -4 30 -9
64 -11 75 -2 11 -5 36 -8 55 -2 19 -6 46 -9 60 -4 14 -9 39 -11 55 -8 45 -23
111 -46 200 -11 44 -22 89 -25 100 -12 53 -63 201 -100 290 -5 11 -9 22 -9 25
-6 26 -91 184 -141 260 -164 249 -353 368 -596 376 -58 2 -108 2 -110 0z"/>
</g>
</svg>
